<?xml version="1.0" encoding="UTF-8"?>
<svg version="1.1" xmlns="http://www.w3.org/2000/svg" width="512" height="512">
<path d="M0 0 C1.87416791 -0.00461261 3.74833221 -0.01096795 5.62248898 -0.01890898 C10.75700288 -0.03557581 15.89121862 -0.02736788 21.02573347 -0.0149641 C26.56910673 -0.00590515 32.11242912 -0.01988755 37.65579224 -0.03088379 C48.50909989 -0.04866452 59.36229686 -0.04483097 70.21560884 -0.03323323 C79.03680469 -0.02419745 87.85796954 -0.02297554 96.6791687 -0.02732849 C97.93494058 -0.02794142 99.19071245 -0.02855436 100.48453802 -0.02918586 C103.03566338 -0.03046477 105.58678872 -0.03176162 108.13791406 -0.03307623 C131.37462272 -0.04415566 154.6112666 -0.03266844 177.84796153 -0.01170584 C199.0501219 0.00727591 220.25218617 0.00557737 241.4543457 -0.0135498 C265.28757955 -0.03497881 289.12076041 -0.0433821 312.95400715 -0.03110075 C315.49571545 -0.02982656 318.03742376 -0.02856908 320.57913208 -0.02732849 C321.82968114 -0.02671139 323.08023021 -0.02609429 324.3686747 -0.02545848 C333.17864742 -0.02200568 341.98858603 -0.02783245 350.79855347 -0.0372467 C361.5358637 -0.04846835 372.27305696 -0.04542305 383.0103538 -0.02412373 C388.48804839 -0.01361566 393.965548 -0.00948752 399.44324112 -0.02272034 C404.45938153 -0.03465483 409.47514657 -0.02806398 414.49125302 -0.00681013 C416.30403687 -0.00234859 418.11685254 -0.00460024 419.92961586 -0.01431328 C430.88298734 -0.06849273 440.88848665 -0.03037336 449.50415039 7.63293457 C456.97252636 15.96708105 457.20976408 25.61409846 457.13708496 36.31018066 C457.14170035 37.79661862 457.14805754 39.283052 457.15599394 40.76947594 C457.17262296 44.8322685 457.16447041 48.89468307 457.15204906 52.95747662 C457.14297442 57.34747 457.15698024 61.73739975 457.16796875 66.12738037 C457.18573284 74.71873143 457.1819234 83.30994251 457.17031819 91.901299 C457.16127583 98.88515907 457.16006334 105.86897999 457.16441345 112.85284424 C457.16502638 113.84773216 457.16563932 114.84262007 457.16627082 115.86765611 C457.16754975 117.88890347 457.16884661 119.91015082 457.17016119 121.93139815 C457.18156081 140.87396553 457.16846298 159.81645541 457.14695972 178.75901008 C457.12908931 195.00413308 457.13219359 211.24914175 457.15063477 227.4942627 C457.17205239 246.37015731 457.18046223 265.24598404 457.16818571 284.12188911 C457.16691155 286.13560103 457.16565406 288.14931296 457.16441345 290.1630249 C457.1634878 291.64910895 457.1634878 291.64910895 457.16254345 293.1652149 C457.15909323 300.13874467 457.16491182 307.1122313 457.17433167 314.08575439 C457.18556293 322.58695032 457.18248789 331.08799855 457.16120869 339.58917761 C457.15071345 343.92463908 457.14655032 348.25985451 457.1598053 352.59531403 C457.1717668 356.56785135 457.16510526 360.53991569 457.14389509 364.5124104 C457.13944487 365.9456534 457.14165964 367.37893676 457.15139824 368.81215358 C457.21156386 378.40624006 456.53737987 386.62264772 450.37915039 394.32043457 C443.86111198 399.50523786 438.71125617 402.63487082 430.23213196 402.62818909 C429.58028386 402.62904351 428.92843576 402.62989794 428.25683469 402.63077825 C426.06881902 402.63242765 423.88087972 402.62692052 421.69287109 402.62145996 C420.12594606 402.62117795 418.5590209 402.6213361 416.99209595 402.62190247 C412.7341334 402.62218988 408.4761989 402.61630209 404.21824288 402.60932851 C399.76994229 402.60308577 395.32164109 402.60249044 390.87333679 402.6013031 C382.44797186 402.59819251 374.02261988 402.58998277 365.59726065 402.57995361 C356.00608151 402.56878405 346.41490174 402.56327989 336.82371771 402.55825818 C317.09218804 402.54779994 297.36067003 402.53020574 277.62915039 402.50793457 C277.90884003 404.86721227 278.1979766 407.22470994 278.49243164 409.58215332 C278.56949341 410.24050171 278.64655518 410.8988501 278.72595215 411.57714844 C280.55799019 425.99834861 287.70835419 437.92486262 298.62133789 447.33605957 C308.26299699 454.29808874 319.6769219 459.15217681 331.31665039 461.44543457 C336.16322326 462.50087291 339.86549326 464.08496636 342.88305664 468.23059082 C345.73334438 473.22604285 346.47503904 477.829907 345.62915039 483.50793457 C343.81518439 488.94983256 340.24652401 492.28626707 335.62915039 495.50793457 C332.87067906 496.42742501 331.24570224 496.63463239 328.40365887 496.63936234 C327.10442628 496.64512405 327.10442628 496.64512405 325.77894658 496.65100217 C324.82682264 496.65013569 323.87469871 496.6492692 322.89372253 496.64837646 C321.37714624 496.65283315 321.37714624 496.65283315 319.82993203 496.65737987 C316.4260011 496.66608431 313.02210526 496.66757659 309.61816406 496.66906738 C307.18413721 496.6736943 304.75011109 496.67871879 302.31608582 496.68411255 C295.69210574 496.69725022 289.06813298 496.70372067 282.44414306 496.70812321 C278.30843143 496.71088549 274.17272215 496.71512281 270.0370121 496.71962738 C258.58736791 496.73182006 247.1377256 496.74211942 235.68807507 496.74550247 C234.95522221 496.74572204 234.22236936 496.7459416 233.46730884 496.74616782 C232.73269879 496.7463861 231.99808875 496.74660438 231.24121779 496.74682927 C229.75260874 496.74727274 228.26399968 496.7477193 226.77539062 496.74816895 C226.03698853 496.74839038 225.29858643 496.7486118 224.53780852 496.74883994 C212.57248402 496.75278814 200.60722042 496.7702428 188.64191946 496.79352847 C176.35855828 496.81724025 164.07522767 496.82970424 151.79184324 496.83087039 C144.8946697 496.83178724 137.9975755 496.83754207 131.10042381 496.85569 C124.61374295 496.8726977 118.12717256 496.87434489 111.64047432 496.86555099 C109.25801567 496.86477857 106.87554904 496.86915027 104.49311066 496.87900925 C101.24373582 496.89166849 97.99489988 496.88588442 94.74552917 496.87542725 C93.80009741 496.88348365 92.85466564 496.89154006 91.88058442 496.89984059 C85.82600516 496.85418873 81.38854734 496.05329025 76.76586914 491.78918457 C76.28762695 491.20137207 75.80938477 490.61355957 75.31665039 490.00793457 C74.82551758 489.42012207 74.33438477 488.83230957 73.82836914 488.22668457 C70.92644524 484.0675754 71.08618077 479.36318462 71.62915039 474.50793457 C72.92778934 469.86757503 75.07886887 466.51725712 79.00415039 463.69543457 C82.61728768 461.66887786 86.07011377 460.93512234 90.12915039 460.19543457 C105.41849247 457.2886531 120.54068568 448.25793902 129.62915039 435.50793457 C135.06166585 426.4963501 138.03454559 417.24529052 139.16308594 406.81530762 C139.25099899 406.00780563 139.33891205 405.20030365 139.42948914 404.36833191 C139.49537735 403.75440079 139.56126556 403.14046967 139.62915039 402.50793457 C138.81892488 402.51254354 138.00869938 402.5171525 137.17392159 402.52190113 C117.43407645 402.63245637 97.69428489 402.7151281 77.95419502 402.76699543 C68.40790799 402.7927466 58.86182797 402.82783794 49.31567383 402.88513184 C40.9925395 402.93506151 32.66955515 402.96724802 24.34627521 402.97837704 C19.94152877 402.98487966 15.53721128 403.00009774 11.13260269 403.03658485 C6.9809287 403.07069583 2.82985754 403.08095737 -1.32194328 403.07347298 C-2.84003038 403.07484082 -4.35813906 403.08468342 -5.87610435 403.10396194 C-16.33096321 403.23015154 -24.01677995 401.93086168 -32.24584961 395.13293457 C-37.32605744 388.85738372 -39.49179795 383.48534147 -39.50507069 375.42142296 C-39.50952853 374.16560335 -39.51398637 372.90978373 -39.5185793 371.61590898 C-39.51849001 370.21967784 -39.51830016 368.8234467 -39.51802063 367.42721558 C-39.52132018 365.94596117 -39.52504594 364.46470766 -39.52916211 362.9834553 C-39.53917989 358.9072309 -39.54289854 354.83102122 -39.54555142 350.75478625 C-39.54945512 346.36061652 -39.55903341 341.96645844 -39.56776428 337.57229614 C-39.58752668 326.9575853 -39.59759456 316.34287351 -39.60649207 305.72814888 C-39.61087528 300.72952807 -39.616242 295.73090833 -39.62148094 290.73228836 C-39.63849289 274.11586667 -39.65298715 257.49944565 -39.66022968 240.88301659 C-39.66213958 236.57097752 -39.66405991 232.25893846 -39.66601562 227.94689941 C-39.66674124 226.3392951 -39.66674124 226.3392951 -39.6674815 224.69921394 C-39.67578213 207.33710084 -39.70111975 189.97505663 -39.7335963 172.61297362 C-39.76666694 154.7879817 -39.78467844 136.9630248 -39.78787392 119.13800204 C-39.790039 109.12979334 -39.79878733 99.12168511 -39.8243351 89.11350632 C-39.84604212 80.59022766 -39.85409248 72.06707388 -39.84436832 63.54377072 C-39.83982365 59.19618436 -39.84171949 54.84885565 -39.86112976 50.50130463 C-39.87876239 46.51745028 -39.8777631 42.53404151 -39.86223247 38.55018242 C-39.85985654 37.11271227 -39.86417926 35.67521125 -39.87606112 34.23778825 C-39.95393877 24.19015631 -39.18750186 15.38031869 -32.24584961 7.63293457 C-22.92490899 -0.65769054 -11.74624813 -0.06293804 0 0 Z " fill="#18316D" transform="translate(47.370849609375,7.4920654296875)"/>
<path d="M0 0 C163.68 0 327.36 0 496 0 C496 44 496 44 489.75 51.8125 C483.23196158 56.99730329 478.08210577 60.12693625 469.60298157 60.12025452 C468.95113347 60.12110894 468.29928537 60.12196337 467.6276843 60.12284368 C465.43966863 60.12449308 463.25172933 60.11898595 461.0637207 60.11352539 C459.49679567 60.11324338 457.92987051 60.11340153 456.36294556 60.1139679 C452.10498301 60.11425531 447.84704851 60.10836752 443.58909249 60.10139394 C439.1407919 60.0951512 434.6924907 60.09455587 430.2441864 60.09336853 C421.81882147 60.09025794 413.39346949 60.0820482 404.96811026 60.07201904 C395.37693111 60.06084948 385.78575135 60.05534532 376.19456732 60.05032361 C356.46303765 60.03986537 336.73151964 60.02227117 317 60 C317.27968964 62.3592777 317.56882621 64.71677537 317.86328125 67.07421875 C317.94034302 67.73256714 318.01740479 68.39091553 318.09680176 69.06921387 C319.9288398 83.49041404 327.0792038 95.41692805 337.9921875 104.828125 C347.6338466 111.79015417 359.04777151 116.64424223 370.6875 118.9375 C375.53407287 119.99293834 379.23634287 121.57703179 382.25390625 125.72265625 C385.10419399 130.71810828 385.84588865 135.32197242 385 141 C383.186034 146.44189799 379.61737362 149.7783325 375 153 C372.24152867 153.91949044 370.61655185 154.12669782 367.77450848 154.13142776 C366.90835342 154.13526891 366.04219837 154.13911005 365.14979619 154.1430676 C364.19767225 154.14220112 363.24554832 154.14133463 362.26457214 154.14044189 C361.25352128 154.14341302 360.24247041 154.14638414 359.20078164 154.1494453 C355.79685071 154.15814974 352.39295487 154.15964202 348.98901367 154.16113281 C346.55498682 154.16575973 344.1209607 154.17078422 341.68693542 154.17617798 C335.06295535 154.18931565 328.43898259 154.1957861 321.81499267 154.20018864 C317.67928104 154.20295092 313.54357175 154.20718824 309.40786171 154.21169281 C297.95821752 154.22388548 286.50857521 154.23418485 275.05892467 154.2375679 C274.32607182 154.23778747 273.59321896 154.23800703 272.83815845 154.23823325 C272.1035484 154.23845153 271.36893836 154.23866981 270.6120674 154.2388947 C269.12345834 154.23933817 267.63484929 154.23978473 266.14624023 154.24023438 C265.40783814 154.2404558 264.66943604 154.24067723 263.90865812 154.24090537 C251.94333363 154.24485357 239.97807003 154.26230823 228.01276907 154.2855939 C215.72940789 154.30930568 203.44607728 154.32176967 191.16269284 154.32293582 C184.26551931 154.32385267 177.36842511 154.3296075 170.47127342 154.34775543 C163.98459256 154.36476313 157.49802217 154.36641032 151.01132393 154.35761642 C148.62886528 154.356844 146.24639864 154.3612157 143.86396027 154.37107468 C140.61458543 154.38373392 137.36574949 154.37794985 134.11637878 154.36749268 C133.17094701 154.37554908 132.22551525 154.38360548 131.25143403 154.39190602 C125.19685477 154.34625416 120.75939695 153.54535568 116.13671875 149.28125 C115.65847656 148.6934375 115.18023437 148.105625 114.6875 147.5 C114.19636719 146.9121875 113.70523438 146.324375 113.19921875 145.71875 C110.29729485 141.55964083 110.45703038 136.85525005 111 132 C112.29863895 127.35964046 114.44971848 124.00932255 118.375 121.1875 C121.98813729 119.16094329 125.44096338 118.42718777 129.5 117.6875 C144.78934208 114.78071853 159.91153529 105.75000445 169 93 C174.43251546 83.98841553 177.4053952 74.73735595 178.53393555 64.30737305 C178.6218486 63.49987106 178.70976166 62.69236908 178.80033875 61.86039734 C178.86622696 61.24646622 178.93211517 60.6325351 179 60 C177.78466174 60.00691345 177.78466174 60.00691345 176.54477119 60.01396656 C156.80492606 60.1245218 137.0651345 60.20719353 117.32504463 60.25906086 C107.7787576 60.28481203 98.23267758 60.31990337 88.68652344 60.37719727 C80.36338911 60.42712694 72.04040476 60.45931345 63.71712482 60.47044247 C59.31237838 60.47694509 54.90806089 60.49216317 50.5034523 60.52865028 C46.35177831 60.56276125 42.20070715 60.5730228 38.04890633 60.56553841 C36.53081923 60.56690625 35.01271055 60.57674885 33.49474525 60.59602737 C23.0398864 60.72221697 15.35406966 59.42292711 7.125 52.625 C-5.56810809 36.94527824 0 22.36845735 0 0 Z " fill="#B2C0C8" transform="translate(8,350)"/>
<path d="M0 0 C45.54 0 91.08 0 138 0 C138.99 7.425 138.99 7.425 140 15 C144.99863007 30.56716221 153.23846029 42.60234672 167.95507812 50.32128906 C175.66279839 54.1751492 183.21270472 57.26779696 191.6875 58.9375 C196.53407287 59.99293834 200.23634287 61.57703179 203.25390625 65.72265625 C206.10419399 70.71810828 206.84588865 75.32197242 206 81 C204.186034 86.44189799 200.61737362 89.7783325 196 93 C193.24152867 93.91949044 191.61655185 94.12669782 188.77450848 94.13142776 C187.47527589 94.13718948 187.47527589 94.13718948 186.14979619 94.1430676 C185.19767225 94.14220112 184.24554832 94.14133463 183.26457214 94.14044189 C181.74799585 94.14489858 181.74799585 94.14489858 180.20078164 94.1494453 C176.79685071 94.15814974 173.39295487 94.15964202 169.98901367 94.16113281 C167.55498682 94.16575973 165.1209607 94.17078422 162.68693542 94.17617798 C156.06295535 94.18931565 149.43898259 94.1957861 142.81499267 94.20018864 C138.67928104 94.20295092 134.54357175 94.20718824 130.40786171 94.21169281 C118.95821752 94.22388548 107.50857521 94.23418485 96.05892467 94.2375679 C94.95964539 94.23789725 94.95964539 94.23789725 93.83815845 94.23823325 C93.1035484 94.23845153 92.36893836 94.23866981 91.6120674 94.2388947 C90.12345834 94.23933817 88.63484929 94.23978473 87.14624023 94.24023438 C86.40783814 94.2404558 85.66943604 94.24067723 84.90865812 94.24090537 C72.94333363 94.24485357 60.97807003 94.26230823 49.01276907 94.2855939 C36.72940789 94.30930568 24.44607728 94.32176967 12.16269284 94.32293582 C5.26551931 94.32385267 -1.63157489 94.3296075 -8.52872658 94.34775543 C-15.01540744 94.36476313 -21.50197783 94.36641032 -27.98867607 94.35761642 C-30.37113472 94.356844 -32.75360136 94.3612157 -35.13603973 94.37107468 C-38.38541457 94.38373392 -41.63425051 94.37794985 -44.88362122 94.36749268 C-45.82905299 94.37554908 -46.77448475 94.38360548 -47.74856597 94.39190602 C-53.80314523 94.34625416 -58.24060305 93.54535568 -62.86328125 89.28125 C-63.34152344 88.6934375 -63.81976563 88.105625 -64.3125 87.5 C-64.80363281 86.9121875 -65.29476562 86.324375 -65.80078125 85.71875 C-68.70270515 81.55964083 -68.54296962 76.85525005 -68 72 C-66.70136105 67.35964046 -64.55028152 64.00932255 -60.625 61.1875 C-57.01186271 59.16094329 -53.55903662 58.42718777 -49.5 57.6875 C-34.21065792 54.78071853 -19.08846471 45.75000445 -10 33 C-3.61671195 22.41125159 -1.35523802 12.19714218 0 0 Z " fill="#97A9B1" transform="translate(187,410)"/>
<path d="M0 0 C1.02207896 -0.00779995 2.04415792 -0.01559991 3.09720898 -0.02363622 C6.50894309 -0.04351889 9.91955718 -0.02780535 13.33129883 -0.01205444 C15.78252817 -0.01883217 18.23375242 -0.02773616 20.68496704 -0.03860474 C26.6437515 -0.05902169 32.60209931 -0.05605514 38.56086659 -0.04154153 C43.40521784 -0.03023249 48.24948088 -0.02872555 53.09384155 -0.03416061 C54.12951146 -0.03530986 54.12951146 -0.03530986 55.186104 -0.03648233 C56.5888959 -0.03808101 57.99168778 -0.03970208 59.39447963 -0.04134528 C72.53704254 -0.05559037 85.67943083 -0.03922963 98.8219651 -0.01234345 C110.08981219 0.00999427 121.3574017 0.00611379 132.62524414 -0.01693726 C145.72195454 -0.04371729 158.81851205 -0.05421719 171.91524601 -0.03887594 C173.31277018 -0.03728325 174.71029438 -0.0357114 176.1078186 -0.03416061 C177.13913156 -0.03300355 177.13913156 -0.03300355 178.19127911 -0.03182311 C183.02773386 -0.02751269 187.86409133 -0.03477839 192.70053101 -0.04655838 C199.21448272 -0.06207605 205.72802402 -0.05096957 212.2419548 -0.0220871 C214.63162809 -0.01547958 217.02134234 -0.01736815 219.4109993 -0.02840042 C222.67510392 -0.04207962 225.93765436 -0.02490912 229.20166016 0 C230.14563754 -0.01115361 231.08961493 -0.02230722 232.06219769 -0.03379881 C238.33856302 0.05900207 242.83093632 1.42417247 247.60083008 5.63491821 C251.49261866 10.90214449 252.56283339 16.17747099 251.60083008 22.63491821 C249.78686408 28.07681621 246.2182037 31.41325071 241.60083008 34.63491821 C238.84235875 35.55440865 237.21738193 35.76161604 234.37533855 35.76634598 C233.07610597 35.7721077 233.07610597 35.7721077 231.75062627 35.77798581 C230.79850233 35.77711933 229.8463784 35.77625285 228.86540222 35.77536011 C227.34882592 35.77981679 227.34882592 35.77981679 225.80161172 35.78436351 C222.39768079 35.79306796 218.99378495 35.79456023 215.58984375 35.79605103 C213.1558169 35.80067794 210.72179078 35.80570243 208.2877655 35.81109619 C201.66378543 35.82423386 195.03981267 35.83070431 188.41582274 35.83510685 C184.28011112 35.83786913 180.14440183 35.84210645 176.00869179 35.84661102 C164.5590476 35.8588037 153.10940529 35.86910306 141.65975475 35.87248611 C140.56047547 35.87281546 140.56047547 35.87281546 139.43898853 35.87315147 C138.70437848 35.87336974 137.96976844 35.87358802 137.21289748 35.87381291 C135.72428842 35.87425638 134.23567937 35.87470294 132.74707031 35.87515259 C132.00866822 35.87537402 131.27026612 35.87559545 130.5094882 35.87582359 C118.54416371 35.87977178 106.57890011 35.89722644 94.61359914 35.92051211 C82.33023797 35.94422389 70.04690736 35.95668788 57.76352292 35.95785403 C50.86634938 35.95877088 43.96925519 35.96452572 37.0721035 35.98267365 C30.58542264 35.99968134 24.09885225 36.00132853 17.61215401 35.99253464 C15.22969535 35.99176221 12.84722872 35.99613391 10.46479034 36.00599289 C7.2154155 36.01865213 3.96657957 36.01286806 0.71720886 36.00241089 C-0.22822291 36.01046729 -1.17365468 36.0185237 -2.14773589 36.02682424 C-8.20231516 35.98117238 -12.63977297 35.18027389 -17.26245117 30.91616821 C-17.74069336 30.32835571 -18.21893555 29.74054321 -18.71166992 29.13491821 C-19.20280273 28.54710571 -19.69393555 27.95929321 -20.19995117 27.35366821 C-23.10187507 23.19455904 -22.94213954 18.49016826 -22.39916992 13.63491821 C-20.77925745 7.84656855 -17.81938685 4.67534394 -12.73102379 1.65847898 C-8.56078805 -0.17203439 -4.4932758 -0.05309051 0 0 Z " fill="#B2C0C8" transform="translate(141.399169921875,468.3650817871094)"/>
<path d="M0 0 C1.30943069 -0.0087616 2.61886139 -0.01752319 3.9679718 -0.02655029 C7.55284398 -0.04931389 11.13699544 -0.04052021 14.72187996 -0.02465487 C18.47651207 -0.01198028 22.2310832 -0.02374028 25.98571777 -0.03158569 C32.29055847 -0.04067779 38.59510615 -0.02870616 44.89990234 -0.00488281 C52.18522355 0.02232797 59.46984511 0.01351347 66.75514936 -0.01401484 C73.01436071 -0.03671772 79.27336165 -0.03990034 85.53260088 -0.02682149 C89.26913958 -0.01903332 93.00534959 -0.01796752 96.74186707 -0.03450394 C100.90775874 -0.05165336 105.07244769 -0.02787422 109.23828125 0 C110.47479935 -0.01012115 111.71131744 -0.02024231 112.98530579 -0.03067017 C122.28350124 0.08477647 122.28350124 0.08477647 125.38903809 2.99990845 C127.52871465 6.27362265 127.83897567 7.80785243 127.11914062 11.64697266 C125.31920288 14.34687927 124.03536763 16.18885916 121.11914062 17.64697266 C119.36938785 17.74867441 117.61577188 17.7864414 115.86308289 17.79414368 C114.74847687 17.80129898 113.63387085 17.80845428 112.48548889 17.81582642 C111.25688644 17.81851532 110.028284 17.82120422 108.76245117 17.82397461 C106.82822296 17.83383141 106.82822296 17.83383141 104.85491943 17.84388733 C101.31143295 17.86130157 97.76795996 17.87185023 94.22444129 17.88009286 C92.01091575 17.88524214 89.79739442 17.89131791 87.58387184 17.89760399 C80.6592562 17.9166573 73.73465124 17.93088811 66.81001443 17.93921596 C58.81483796 17.94898983 50.81993825 17.97531239 42.82485932 18.01571685 C36.64644563 18.04586973 30.46811131 18.06068403 24.28962547 18.06399697 C20.59886485 18.06634843 16.90839985 18.07532072 13.21771812 18.10045815 C9.09963921 18.1280532 4.98217912 18.12391033 0.86401367 18.11694336 C-0.35851608 18.12975342 -1.58104584 18.14256348 -2.84062195 18.15576172 C-11.10358187 18.10467255 -11.10358187 18.10467255 -15.11491394 15.74259949 C-17.22302291 13.24093118 -17.8215832 12.09154394 -18.25585938 8.83447266 C-17.86494679 5.5117157 -17.21839508 3.97183171 -14.77006531 1.69108963 C-10.3668408 -0.74246267 -4.88848303 -0.04001324 0 0 Z " fill="#F5D84E" transform="translate(145.880859375,298.35302734375)"/>
<path d="M0 0 C1.66974129 -0.0129007 1.66974129 -0.0129007 3.37321472 -0.02606201 C5.21376183 -0.03245193 5.21376183 -0.03245193 7.0914917 -0.03897095 C8.37937088 -0.04714844 9.66725006 -0.05532593 10.99415588 -0.06375122 C15.27234808 -0.0899772 19.55055008 -0.10528064 23.82879639 -0.11953735 C25.30153154 -0.12489703 26.77426663 -0.13027454 28.24700165 -0.13566971 C34.37372616 -0.15730038 40.50044804 -0.17603658 46.62720108 -0.1872921 C55.40703858 -0.2035276 64.18643324 -0.23669291 72.96610379 -0.29369295 C79.13943527 -0.33240472 85.31264838 -0.35192629 91.48609805 -0.35721266 C95.17305454 -0.36086486 98.85953879 -0.3728707 102.54636383 -0.4053154 C106.66193424 -0.44101334 110.77655441 -0.43702212 114.89227295 -0.42959595 C116.11120743 -0.44600128 117.33014191 -0.46240662 118.58601379 -0.47930908 C127.79465641 -0.41118458 127.79465641 -0.41118458 131.52258301 2.543396 C133.75067139 5.15390015 133.75067139 5.15390015 134.25848389 7.50546265 C134.13215576 8.25569702 134.00582764 9.0059314 133.87567139 9.77890015 C133.77512451 10.53429077 133.67457764 11.2896814 133.57098389 12.06796265 C132.48357267 14.83309403 131.28077719 15.618133 128.75067139 17.15390015 C126.1641016 17.53701019 126.1641016 17.53701019 123.17817688 17.54830933 C122.04399323 17.55965912 120.90980957 17.57100891 119.74125671 17.58270264 C118.50114334 17.57977203 117.26102997 17.57684143 115.9833374 17.57382202 C114.67405273 17.58229156 113.36476807 17.59076111 112.01580811 17.5994873 C108.42692398 17.62170423 104.83826944 17.62463395 101.24932599 17.62273979 C98.25226997 17.6226201 95.25526262 17.63118354 92.25822014 17.63951731 C85.18723011 17.65875185 78.11635814 17.66163497 71.04534912 17.65487671 C63.75270042 17.64823485 56.46055738 17.67110549 49.16801125 17.70819044 C42.904605 17.73888518 36.64136143 17.75024777 30.37788147 17.74635363 C26.63793612 17.74428593 22.89838429 17.74976787 19.15851021 17.77424622 C14.98779942 17.80064287 10.81815677 17.7867874 6.6473999 17.76913452 C5.40931076 17.78239777 4.17122162 17.79566101 2.89561462 17.80932617 C-6.41516413 17.71753871 -6.41516413 17.71753871 -9.5202179 14.802948 C-11.65791384 11.52793571 -11.96917957 9.99310525 -11.24932861 6.15390015 C-7.87347104 1.09011378 -5.92860844 0.03401734 0 0 Z " fill="#F4D84E" transform="translate(139.24932861328125,212.84609985351563)"/>
<path d="M0 0 C1.28992355 -0.00540298 2.57984711 -0.01080597 3.90885925 -0.01637268 C7.43994969 -0.03031599 10.97055226 -0.01916591 14.50161552 -0.00266147 C18.20017743 0.01120658 21.89871151 0.00472696 25.59729004 0.00120544 C31.80794114 -0.0014953 38.01839883 0.01196712 44.22900391 0.03515625 C51.40512007 0.06176526 58.58091289 0.06351265 65.75706148 0.05176789 C72.66569428 0.04098143 79.57421033 0.04718395 86.48283386 0.06132317 C89.42053493 0.06707548 92.35815036 0.06700626 95.29585266 0.06225777 C99.39923651 0.05659091 103.50213915 0.07582381 107.60546875 0.09765625 C109.43219368 0.09090378 109.43219368 0.09090378 111.29582214 0.08401489 C112.41455215 0.09391953 113.53328217 0.10382416 114.68591309 0.11402893 C115.65559776 0.11645883 116.62528244 0.11888872 117.6243515 0.12139225 C120.81271924 0.57412424 122.70795774 1.62346481 125.30273438 3.50170898 C126.87209031 6.64042086 126.6547454 9.0402672 126.30273438 12.50170898 C124.64447943 15.08992925 123.92127144 16.07600322 121.30273438 17.50170898 C117.04545239 18.25600246 112.82748559 18.17391364 108.51367188 18.1328125 C106.56415619 18.14354546 106.56415619 18.14354546 104.57525635 18.15449524 C101.01721835 18.17299208 97.45993078 18.16008246 93.90192413 18.14040494 C90.17533007 18.12400245 86.44878295 18.13283355 82.72216797 18.13792419 C76.46439649 18.1424434 70.20692409 18.12658637 63.94921875 18.09863281 C56.71850096 18.06658142 49.48832253 18.06659704 42.25756645 18.08384758 C35.29658126 18.09972157 28.33579347 18.09297359 21.37481689 18.07591057 C18.41476169 18.06904506 15.45486495 18.07006729 12.49481201 18.07745552 C8.36016981 18.08655223 4.22635812 18.06256429 0.09179688 18.03515625 C-1.13537048 18.04168213 -2.36253784 18.04820801 -3.62689209 18.05493164 C-11.90674164 17.96145949 -11.90674164 17.96145949 -15.95507812 15.60704041 C-17.94388008 13.20368988 -18.3752394 12.09537743 -18.32226562 9.00170898 C-18.33515625 8.24889648 -18.34804687 7.49608398 -18.36132812 6.72045898 C-15.90781802 -1.47715125 -6.86005232 -0.05446039 0 0 Z " fill="#4DD7D4" transform="translate(120.697265625,255.498291015625)"/>
<path d="M0 0 C1.14404297 -0.0112793 2.28808594 -0.02255859 3.46679688 -0.03417969 C5.34334961 -0.0220343 5.34334961 -0.0220343 7.2578125 -0.00964355 C8.59180465 -0.01506511 9.9257908 -0.02218797 11.25976562 -0.03088379 C14.87966598 -0.04911656 18.49911024 -0.04205017 22.11901855 -0.02936745 C25.9074832 -0.01923938 29.69590882 -0.02863258 33.484375 -0.03491211 C39.84642548 -0.04218911 46.20829022 -0.03259956 52.5703125 -0.0135498 C59.92541387 0.00821921 67.28007173 0.00116786 74.63516235 -0.02085543 C80.95036617 -0.03900805 87.26543648 -0.04156848 93.58065796 -0.03110075 C97.35234853 -0.02486499 101.12383064 -0.02403225 104.89550781 -0.0372467 C108.44153603 -0.04880278 111.98699253 -0.04078487 115.53295898 -0.01766968 C117.45490737 -0.00985857 119.37690412 -0.02174065 121.29882812 -0.03417969 C123.01489258 -0.01726074 123.01489258 -0.01726074 124.765625 0 C125.75965332 0.0015081 126.75368164 0.0030162 127.77783203 0.00457001 C131.10045353 0.6466055 132.29109008 1.90497918 134.3828125 4.50793457 C135.11052483 7.24755745 134.96252827 9.74007596 134.3828125 12.50793457 C132.51266156 14.9391308 131.10142905 16.1486263 128.3828125 17.50793457 C126.63311949 17.61174932 124.87949612 17.65179122 123.12675476 17.66183472 C122.01214874 17.67043518 120.89754272 17.67903564 119.74916077 17.68789673 C117.9062571 17.69428665 117.9062571 17.69428665 116.02612305 17.70080566 C114.09189484 17.7130719 114.09189484 17.7130719 112.11859131 17.72558594 C107.83559257 17.75180966 103.55258403 17.76711365 99.26953125 17.78137207 C97.79553534 17.78673156 96.3215395 17.79210907 94.84754372 17.79750443 C88.71652798 17.81913344 82.58551488 17.83787049 76.45447063 17.84912682 C67.6656213 17.86536849 58.87721391 17.89855067 50.0885312 17.95552766 C43.91011982 17.99421775 37.73182669 18.01375835 31.55329734 18.01904738 C27.86246077 18.02270213 24.17209551 18.03473531 20.48139 18.06715012 C16.36322081 18.10280073 12.2460023 18.09886237 8.12768555 18.09143066 C6.90515579 18.107836 5.68262604 18.12424133 4.42304993 18.1411438 C-4.77326742 18.07302721 -4.77326742 18.07302721 -7.87443542 15.10256958 C-10.58168247 11.07198022 -10.29998652 9.28752774 -9.6171875 4.50793457 C-6.7158568 0.69306377 -4.71686864 0.00715626 0 0 Z " fill="#4DD5D3" transform="translate(112.6171875,170.4920654296875)"/>
<path d="M0 0 C2.9375 1.5 2.9375 1.5 5 4 C5.84451025 7.49868531 6.06164197 8.70671388 5 12 C-1.62256512 21.02019159 -10.63807456 28.75396143 -18.5625 36.625 C-19.8706778 37.92814946 -21.17862217 39.2315333 -22.48632812 40.53515625 C-25.65487214 43.69280792 -28.82654177 46.8472875 -32 50 C-30.62737236 53.08344541 -29.06394769 55.17718901 -26.66772461 57.54345703 C-25.9903978 58.21740509 -25.31307098 58.89135315 -24.61521912 59.58572388 C-23.88497025 60.30251312 -23.15472137 61.01930237 -22.40234375 61.7578125 C-21.65287979 62.50207489 -20.90341583 63.24633728 -20.13124084 64.01315308 C-17.73802366 66.38856426 -15.33822632 68.75718009 -12.9375 71.125 C-10.53408548 73.50082216 -8.13213131 75.87807489 -5.73304749 78.25827026 C-4.2400398 79.73899433 -2.74436764 81.21703744 -1.24583435 82.69216919 C-0.23457237 83.6936348 -0.23457237 83.6936348 0.79711914 84.71533203 C1.39287247 85.30283234 1.98862579 85.89033264 2.60243225 86.49563599 C4.77446369 88.83364495 5.00689025 90.06086384 5.375 93.3125 C5 97 5 97 2.9375 99.9375 C-0.76371914 102.53622833 -2.54733257 102.47839765 -7 102 C-9.62608337 100.26953125 -9.62608337 100.26953125 -12.10913086 97.8125 C-13.04957748 96.89734619 -13.99002411 95.98219238 -14.95896912 95.03930664 C-15.96189815 94.02716549 -16.96383297 93.01403835 -17.96484375 92 C-19.00764464 90.96445985 -20.05140727 89.92988736 -21.09608459 88.89624023 C-23.27865544 86.72848009 -25.44785052 84.54834923 -27.60864258 82.35888672 C-30.3732891 79.55997193 -33.17032458 76.79625374 -35.97856808 74.04116821 C-38.14027747 71.91233166 -40.28273308 69.76490698 -42.42001534 67.61157227 C-43.4438283 66.58494675 -44.473704 65.56432928 -45.50974846 64.55004883 C-54.57571224 55.64157331 -54.57571224 55.64157331 -55.06469727 50.80859375 C-53.58875643 45.52891546 -50.86399006 42.77224759 -47 39 C-46.32634399 38.30489319 -45.65268799 37.60978638 -44.95861816 36.89361572 C-42.77024332 34.63820832 -40.55320339 32.41449388 -38.328125 30.1953125 C-37.12177399 28.9875264 -37.12177399 28.9875264 -35.89105225 27.75534058 C-34.20480048 26.06841282 -32.51730333 24.3827291 -30.82861328 22.69824219 C-28.24004658 20.11506732 -25.65690581 17.52655197 -23.07421875 14.9375 C-21.43000835 13.29394979 -19.7854881 11.65070949 -18.140625 10.0078125 C-17.3687384 9.23390167 -16.59685181 8.45999084 -15.80157471 7.66262817 C-15.08362732 6.94783295 -14.36567993 6.23303772 -13.62597656 5.49658203 C-12.68168793 4.55348679 -12.68168793 4.55348679 -11.71832275 3.59133911 C-7.7872042 -0.04927072 -5.27227129 -0.54540737 0 0 Z " fill="#F9FAFB" transform="translate(208,43)"/>
<path d="M0 0 C10.09502219 3.05381637 20.52469709 17.82625226 27.81835938 25.1394043 C30.23892688 27.56538474 32.66486187 29.98590725 35.09130859 32.40600586 C36.63459854 33.9499557 38.17757874 35.49421524 39.72021484 37.03881836 C40.444104 37.76068329 41.16799316 38.48254822 41.91381836 39.22628784 C42.5821167 39.89773834 43.25041504 40.56918884 43.93896484 41.26098633 C44.52613281 41.84894989 45.11330078 42.43691345 45.71826172 43.04269409 C48.6668988 46.24062569 50.03958003 48.91387288 49.90374756 53.3274231 C48.29897793 58.83105642 43.25374496 62.61193385 39.22802734 66.48022461 C38.19981699 67.4960386 37.17329997 68.51356919 36.14840698 69.5327301 C33.45407629 72.20226826 30.7361652 74.84650071 28.01293945 77.48651123 C25.7895735 79.64974442 23.58313425 81.82979987 21.37744331 84.01103115 C16.82548976 88.51239821 12.26037622 93.00029878 7.66992188 97.46240234 C6.85717804 98.25323715 6.0444342 99.04407196 5.20706177 99.85887146 C2.7794079 102.0738143 1.67994002 102.61033417 -1.59228516 103.04663086 C-4.77978516 102.67163086 -4.77978516 102.67163086 -7.65478516 100.60913086 C-9.77978516 97.67163086 -9.77978516 97.67163086 -10.52978516 94.35913086 C-9.75342836 90.54204328 -9.19447696 89.66097171 -6.68579102 86.90014648 C-6.05067596 86.20018555 -5.41556091 85.50022461 -4.76119995 84.77905273 C-1.74281713 81.56871737 1.33759544 78.4305521 4.46630859 75.32788086 C5.12228531 74.67331909 5.77826202 74.01875732 6.45411682 73.34436035 C8.51961629 71.28439263 10.5885908 69.2279572 12.65771484 67.17163086 C14.07135918 65.76301036 15.4847727 64.35415819 16.89794922 62.94506836 C20.33604634 59.51790953 23.77726141 56.09391067 27.22021484 52.67163086 C25.86530515 49.64221871 24.35254518 47.56225213 21.99560547 45.23583984 C21.3415271 44.58514023 20.68744873 43.93444061 20.0135498 43.26402283 C19.30831177 42.57224442 18.60307373 41.880466 17.87646484 41.16772461 C17.1515686 40.44802994 16.42667236 39.72833527 15.67980957 38.98683167 C13.36464133 36.68946547 11.0428997 34.39889539 8.72021484 32.10913086 C6.39840404 29.8149435 4.07806564 27.51931541 1.76062012 25.22071838 C0.31878682 23.79113406 -1.12571138 22.36423145 -2.57312012 20.94029236 C-3.22719849 20.2927449 -3.88127686 19.64519745 -4.55517578 18.97802734 C-5.1309436 18.41051254 -5.70671143 17.84299774 -6.29992676 17.25828552 C-9.51500623 13.81118488 -10.24022707 11.31162869 -10.08447266 6.61303711 C-9.77978516 4.67163086 -9.77978516 4.67163086 -8.27978516 2.17163086 C-5.48842129 0.49681254 -3.27717891 -0.21424566 0 0 Z " fill="#F9FAFB" transform="translate(308.77978515625,42.328369140625)"/>
<path d="M0 0 C2.875 1.4375 2.875 1.4375 5 4 C6.14111266 10.74960308 4.11080151 16.97827766 1.97412109 23.30566406 C1.49114563 24.78788452 1.49114563 24.78788452 0.99841309 26.30004883 C-0.0627793 29.54330369 -1.14366465 32.77955844 -2.2265625 36.015625 C-2.97509175 38.27744562 -3.72299688 40.53947287 -4.4703064 42.80169678 C-6.03666386 47.53202484 -7.61330898 52.25877206 -9.19677734 56.98339844 C-11.22337868 63.03428011 -13.21977223 69.09464571 -15.20806313 75.15820694 C-16.74378452 79.82793023 -18.29752897 84.49150476 -19.85654831 89.15349579 C-20.60017861 91.38577211 -21.33770491 93.62009159 -22.06895828 95.85645294 C-23.09332943 98.98150996 -24.14223082 102.09726415 -25.19775391 105.21191406 C-25.49410736 106.13357361 -25.79046082 107.05523315 -26.09579468 108.00482178 C-28.04955588 113.66114296 -29.90624253 116.74130286 -35 120 C-38.6815201 120.0736304 -40.35139332 119.47330758 -43.3125 117.3125 C-45.49056938 114.32773826 -45.77511178 112.71452686 -46 109 C-45.29472316 105.59017641 -44.18047944 102.34269034 -43.0559082 99.05078125 C-42.730858 98.06467865 -42.4058078 97.07857605 -42.07090759 96.06259155 C-40.99413462 92.80797954 -39.89797052 89.56028079 -38.80078125 86.3125 C-38.04572605 84.04889068 -37.29160409 81.78496986 -36.53837585 79.52075195 C-34.95700071 74.7768956 -33.36637185 70.03627686 -31.76879883 65.29785156 C-29.72355242 59.23011441 -27.69826353 53.15594873 -25.67948627 47.07936096 C-24.12414629 42.40330497 -22.55982891 37.7302923 -20.99263573 33.05819702 C-20.24270493 30.81993653 -19.49518838 28.58086562 -18.75014687 26.3409729 C-17.70597057 23.20732868 -16.65015651 20.07784822 -15.59106445 16.94921875 C-15.2859494 16.02644135 -14.98083435 15.10366394 -14.66647339 14.15292358 C-9.51334537 -0.93268092 -9.51334537 -0.93268092 0 0 Z " fill="#FAFBFC" transform="translate(276,34)"/>
<path d="M0 0 C0.8119986 -0.0087616 1.62399719 -0.01752319 2.46060181 -0.02655029 C5.13704314 -0.04850569 7.81182397 -0.03400613 10.48828125 -0.01708984 C12.3524609 -0.02045911 14.21663841 -0.02531265 16.08081055 -0.03158569 C19.98475085 -0.03895177 23.88811853 -0.02826018 27.79199219 -0.00488281 C32.79261351 0.02360496 37.7918931 0.00719954 42.79246521 -0.02274513 C46.64101241 -0.04082537 50.48924224 -0.03505678 54.33779907 -0.02210617 C56.18136759 -0.01877416 58.02496505 -0.02285205 59.86849976 -0.03450394 C62.44696199 -0.04722493 65.02326114 -0.02782029 67.6015625 0 C68.36119293 -0.01012115 69.12082336 -0.02024231 69.9034729 -0.03067017 C73.86127813 0.04832006 75.63477763 0.51578113 78.77807617 2.99990845 C80.80078125 5.64697266 80.80078125 5.64697266 81.36328125 8.64697266 C80.67720468 12.3060477 79.37343811 13.99864941 76.80078125 16.64697266 C73.72805305 18.18333675 70.49860044 17.81190977 67.12573242 17.82397461 C65.93765236 17.83383141 65.93765236 17.83383141 64.72557068 17.84388733 C62.09829621 17.86363554 59.47107893 17.87528625 56.84375 17.88525391 C55.94715479 17.88932943 55.05055958 17.89340496 54.12679482 17.89760399 C49.38132583 17.91847117 44.63588582 17.93277011 39.89038086 17.94213867 C34.98745954 17.95320484 30.08499186 17.98760515 25.18223095 18.02731037 C21.41355034 18.05344921 17.64497827 18.06182807 13.87621498 18.06542015 C12.06890105 18.07029315 10.26159219 18.08192744 8.45436668 18.10045815 C5.92388288 18.12479206 3.39457852 18.12389542 0.86401367 18.11694336 C0.11837158 18.12975342 -0.62727051 18.14256348 -1.39550781 18.15576172 C-6.2788296 18.10689767 -8.77714294 17.13068738 -12.19921875 13.64697266 C-13.6435273 10.75835556 -13.57610381 8.85049564 -13.19921875 5.64697266 C-9.37548386 0.5915026 -6.04283481 -0.08051345 0 0 Z " fill="#4CD4D2" transform="translate(303.19921875,298.35302734375)"/>
<path d="M0 0 C0.79205338 -0.0065712 1.58410675 -0.0131424 2.40016174 -0.01991272 C5.02743622 -0.03966093 7.65465349 -0.05131164 10.28198242 -0.0612793 C11.17857763 -0.06535482 12.07517284 -0.06943035 12.99893761 -0.07362938 C17.74440659 -0.09449657 22.4898466 -0.1087955 27.23535156 -0.11816406 C32.13827288 -0.12923023 37.04074056 -0.16363054 41.94350147 -0.20333576 C45.71218208 -0.2294746 49.48075416 -0.23785346 53.24951744 -0.24144554 C55.05683137 -0.24631854 56.86414024 -0.25795283 58.67136574 -0.27648354 C61.20184954 -0.30081745 63.7311539 -0.29992081 66.26171875 -0.29296875 C67.00736084 -0.30577881 67.75300293 -0.31858887 68.52124023 -0.33178711 C72.11310874 -0.29584575 74.18355858 0.08977938 77.2664032 1.99153137 C80.10811848 5.00845652 80.32495117 7.07774448 80.32495117 11.17700195 C78.97932718 14.12455927 78.23940573 15.71977467 75.32495117 17.17700195 C72.6917994 17.29089383 70.08447935 17.3448293 67.45043945 17.35400391 C66.63727264 17.3605751 65.82410583 17.3671463 64.98629761 17.37391663 C62.28928542 17.39366403 59.5923289 17.40531449 56.89526367 17.4152832 C55.97535519 17.41935873 55.0554467 17.42343426 54.1076622 17.42763329 C49.24015272 17.44849871 44.37267149 17.46279921 39.50512695 17.47216797 C34.47207642 17.48324235 29.43946681 17.51765265 24.40657234 17.55733967 C20.54099695 17.58345394 16.67552752 17.5918551 12.80987167 17.59544945 C10.95428357 17.60032771 9.09870058 17.61197679 7.24319839 17.63048744 C4.64785804 17.65477231 2.05367056 17.65393384 -0.54174805 17.64697266 C-1.30968689 17.65978271 -2.07762573 17.67259277 -2.86883545 17.68579102 C-6.33242914 17.65188821 -8.30291308 17.45308447 -11.12088013 15.36247253 C-13.33635199 12.24707807 -13.67504883 9.98029866 -13.67504883 6.17700195 C-9.86193849 0.12862003 -6.70227324 0.02397421 0 0 Z " fill="#4CD4D2" transform="translate(303.675048828125,212.822998046875)"/>
<path d="M0 0 C0.64604187 -0.00700928 1.29208374 -0.01401855 1.95770264 -0.02124023 C4.08755834 -0.03880645 6.21607868 -0.02720288 8.34594727 -0.01367188 C9.83041132 -0.01636756 11.31487365 -0.02025062 12.79933167 -0.02526855 C15.90887277 -0.03116195 19.01795384 -0.02260766 22.12744141 -0.00390625 C26.10676749 0.01886412 30.08501328 0.00577258 34.06429958 -0.01819611 C37.12962427 -0.03267583 40.19469443 -0.02803797 43.26002693 -0.01768494 C44.72679841 -0.01502259 46.19359324 -0.01827013 47.66033745 -0.02760315 C49.71428139 -0.03780337 51.76649678 -0.02222274 53.8203125 0 C54.98739243 0.00318237 56.15447235 0.00636475 57.35691833 0.00964355 C61.11308807 0.62155123 62.78935159 1.87096183 65.47485352 4.51757812 C66.33786682 7.26206763 66.11150532 9.72434005 65.47485352 12.51757812 C63.60470257 14.94877435 62.19347007 16.15826985 59.47485352 17.51757812 C57.43904021 17.63472534 55.39940175 17.68734921 53.36035156 17.71044922 C51.43276253 17.73454361 51.43276253 17.73454361 49.4662323 17.75912476 C48.05635234 17.77061163 46.64646499 17.78122027 45.23657227 17.79101562 C44.52753061 17.7963393 43.81848896 17.80166298 43.0879612 17.80714798 C39.3345307 17.83387434 35.5811334 17.85325025 31.82763672 17.86767578 C27.95360957 17.88431731 24.08043421 17.92909068 20.20672894 17.98004723 C17.22554058 18.01372951 14.24455413 18.02525415 11.26319313 18.03090286 C9.835432 18.03761344 8.40768406 18.05283086 6.98010826 18.07679367 C4.97948605 18.10845764 2.97840698 18.10547938 0.97753906 18.10107422 C-0.16004349 18.10916107 -1.29762604 18.11724792 -2.46968079 18.12557983 C-6.47554069 17.32846087 -7.97006264 15.62580862 -10.52514648 12.51757812 C-11.4325279 9.49109478 -10.98947781 7.76789743 -10.52514648 4.51757812 C-7.45354727 0.33912719 -5.05124879 0.01378305 0 0 Z " fill="#FA4C77" transform="translate(275.525146484375,170.482421875)"/>
<path d="M0 0 C1.92724915 -0.01395813 1.92724915 -0.01395813 3.89343262 -0.02819824 C5.28769026 -0.01261091 6.68193705 0.00397419 8.07617188 0.02148438 C9.51436259 0.02319669 10.95255642 0.02312857 12.39074707 0.0213623 C15.40028881 0.02301325 18.40908358 0.04166768 21.41845703 0.07324219 C25.26873629 0.11292006 29.11803805 0.11728625 32.96848297 0.10977936 C35.93687841 0.10670423 38.90505564 0.11884928 41.87339783 0.13591003 C43.29270559 0.14292233 44.71203808 0.14606672 46.13136292 0.1452179 C48.11759256 0.14702309 50.10376558 0.17071614 52.08984375 0.1953125 C53.21837769 0.20373169 54.34691162 0.21215088 55.50964355 0.2208252 C58.90671632 0.66224656 60.80737999 1.5881192 63.54492188 3.61523438 C65.07338849 6.6721676 64.77734633 9.24507985 64.54492188 12.61523438 C62.78477057 15.80027007 62.04601271 16.4482041 58.54492188 17.61523438 C56.47105953 17.72943619 54.39376509 17.78453089 52.31689453 17.80810547 C51.03191071 17.8241684 49.74692688 17.84023132 48.42300415 17.85678101 C47.01833763 17.86826703 45.6136637 17.87887581 44.20898438 17.88867188 C43.50085979 17.89399555 42.79273521 17.89931923 42.06315231 17.90480423 C38.31620111 17.93150294 34.56928287 17.9508897 30.82226562 17.96533203 C27.7239841 17.97868003 24.62635985 18.00655127 21.52832031 18.04736328 C17.78355928 18.09669035 14.03939501 18.12145234 10.29432297 18.12855911 C8.86935279 18.13526836 7.44439576 18.15048234 6.01961136 18.17444992 C4.02388839 18.20611117 2.02770752 18.20313583 0.03173828 18.19873047 C-1.10282806 18.20681732 -2.23739441 18.21490417 -3.40634155 18.22323608 C-7.43814924 17.41918303 -8.92838996 15.79163719 -11.45507812 12.61523438 C-12.08007812 9.11523438 -12.08007812 9.11523438 -11.45507812 5.61523438 C-7.89454179 1.14660355 -5.67410705 -0.01032945 0 0 Z " fill="#FD4C77" transform="translate(276.455078125,255.384765625)"/>
<path d="M0 0 C1.63630371 -0.00717545 1.63630371 -0.00717545 3.30566406 -0.01449585 C5.60873865 -0.01789363 7.91186155 -0.00869993 10.21484375 0.01220703 C13.73807417 0.0389719 17.25811856 0.01245249 20.78125 -0.01953125 C23.02084036 -0.01622713 25.26042874 -0.00982087 27.5 0 C29.0782959 -0.01518173 29.0782959 -0.01518173 30.68847656 -0.03067017 C37.97195898 0.08592814 37.97195898 0.08592814 41.91796875 3.01806641 C43.75 5.6640625 43.75 5.6640625 44.3125 8.6640625 C43.62206143 12.34640154 42.38186072 14.03220178 39.75 16.6640625 C36.91986326 17.60744141 35.11099861 17.8055147 32.17431641 17.84106445 C31.24970612 17.85389969 30.32509583 17.86673492 29.37246704 17.87995911 C28.37556854 17.88734604 27.37867004 17.89473297 26.3515625 17.90234375 C25.3244516 17.9104155 24.2973407 17.91848724 23.23910522 17.92680359 C21.0653451 17.94063573 18.89156334 17.95136177 16.71777344 17.95922852 C13.39476455 17.97646001 10.0727458 18.02035678 6.75 18.06445312 C4.63802815 18.07457862 2.52604784 18.08309517 0.4140625 18.08984375 C-1.07521255 18.11610588 -1.07521255 18.11610588 -2.59457397 18.14289856 C-7.00345738 18.12904285 -9.52893578 18.10580933 -13.35400391 15.76245117 C-15.60939852 13.26629914 -16.17960041 12.19205939 -16.625 8.8515625 C-16.25 5.6640625 -16.25 5.6640625 -14.4296875 3.00634766 C-9.75435961 -0.43768611 -5.66990077 -0.05453915 0 0 Z " fill="#F94C77" transform="translate(417.25,298.3359375)"/>
<path d="M0 0 C1.38218719 -0.01925285 1.38218719 -0.01925285 2.79229736 -0.03889465 C4.29068146 -0.04997505 4.29068146 -0.04997505 5.81933594 -0.0612793 C6.84549011 -0.06935104 7.87164429 -0.07742279 8.92889404 -0.08573914 C11.10443427 -0.09958694 13.2799963 -0.11030597 15.45556641 -0.11816406 C18.77646335 -0.13535698 22.09635979 -0.17923526 25.41699219 -0.22338867 C27.53026611 -0.23351724 29.64354851 -0.24203283 31.75683594 -0.2487793 C32.74766174 -0.26628738 33.73848755 -0.28379547 34.75933838 -0.30183411 C40.6366524 -0.28342592 44.14383853 0.14212175 48.55371094 4.17700195 C49.79711799 8.19978949 49.99796138 10.20388193 48.24121094 14.05200195 C46.55371094 16.17700195 46.55371094 16.17700195 44.55371094 17.17700195 C42.9774269 17.29224366 41.39648002 17.3464783 39.81616211 17.36987305 C38.83141403 17.38593597 37.84666595 17.4019989 36.83207703 17.41854858 C32.32645313 17.4629599 27.82097707 17.50406164 23.31518555 17.52709961 C20.93780736 17.54366444 18.56047908 17.57096107 16.18334961 17.60913086 C12.75836306 17.66385451 9.33454435 17.68576738 5.90917969 17.70043945 C4.84757126 17.72310883 3.78596283 17.7457782 2.69218445 17.76913452 C-4.67333992 17.74802014 -4.67333992 17.74802014 -8.62084961 14.83178711 C-10.44628906 12.17700195 -10.44628906 12.17700195 -11.00878906 9.17700195 C-10.32271249 5.51792691 -9.01894593 3.8253252 -6.44628906 1.17700195 C-4.08851036 -0.0018874 -2.6298934 0.03186712 0 0 Z " fill="#F94C77" transform="translate(411.4462890625,212.822998046875)"/>
<path d="M0 0 C0.69867188 -0.01933594 1.39734375 -0.03867187 2.1171875 -0.05859375 C6.06043383 -0.02139331 7.85217208 0.50775045 10.96484375 2.9765625 C13 5.625 13 5.625 13.5625 8.625 C12.87206143 12.30733904 11.63186072 13.99313928 9 16.625 C5.70907406 17.72197531 3.08887841 17.8621983 -0.375 17.9375 C-1.49648438 17.97488281 -2.61796875 18.01226562 -3.7734375 18.05078125 C-7.65385586 17.53871636 -9.23562425 16.33408823 -12 13.625 C-13.44430855 10.73638291 -13.37688506 8.82852299 -13 5.625 C-9.23399696 0.67394196 -5.97458933 -0.16534841 0 0 Z " fill="#F6F7F9" transform="translate(64,298.375)"/>
<path d="M0 0 C0.69867188 -0.01933594 1.39734375 -0.03867188 2.1171875 -0.05859375 C6.06043383 -0.02139331 7.85217208 0.50775045 10.96484375 2.9765625 C13 5.625 13 5.625 13.5625 8.625 C12.87206143 12.30733904 11.63186072 13.99313928 9 16.625 C5.70907406 17.72197531 3.08887841 17.8621983 -0.375 17.9375 C-1.49648438 17.97488281 -2.61796875 18.01226562 -3.7734375 18.05078125 C-7.65385586 17.53871636 -9.23562425 16.33408823 -12 13.625 C-13.44430855 10.73638291 -13.37688506 8.82852299 -13 5.625 C-9.23399696 0.67394196 -5.97458933 -0.16534841 0 0 Z " fill="#F6F7F9" transform="translate(64,170.375)"/>
<path d="M0 0 C3.09666108 1.77602621 3.86372475 3.41618669 4.90625 6.7890625 C4.83773085 10.69465398 4.24755055 12.32455441 1.84375 15.3515625 C-1.28683086 16.91685293 -4.59704008 16.61847564 -8.03125 16.6640625 C-8.75183594 16.69306641 -9.47242188 16.72207031 -10.21484375 16.75195312 C-13.72287841 16.79394617 -15.74221332 16.65712951 -18.6015625 14.546875 C-20.81246065 11.42495349 -21.15625 9.15837484 -21.15625 5.3515625 C-16.45454114 -2.10632052 -8.13640427 -2.44681723 0 0 Z " fill="#F6F7F9" transform="translate(72.15625,213.6484375)"/>
<path d="M0 0 C1.29808594 -0.0103125 2.59617187 -0.020625 3.93359375 -0.03125 C8.05481052 0.57207129 9.70444127 1.51930069 12.5625 4.5 C13.625 7.9375 13.625 7.9375 13.5625 11.5 C11.79608828 14.30189446 10.53200178 16.01524911 7.5625 17.5 C-5.12097075 18.68579194 -5.12097075 18.68579194 -9.57421875 16.40625 C-12.09369416 13.69185815 -12.43747929 11.50120146 -12.5 7.875 C-10.32369925 0.96204466 -6.97790733 -0.05532533 0 0 Z " fill="#F9FAFB" transform="translate(63.4375,255.5)"/>
</svg>
